<?xml version="1.0" encoding="iso-8859-1"?>
<!-- Generator: Adobe Illustrator 19.0.0, SVG Export Plug-In . SVG Version: 6.00 Build 0)  -->
<svg version="1.1" id="Capa_1" xmlns="http://www.w3.org/2000/svg" xmlns:xlink="http://www.w3.org/1999/xlink" x="0px" y="0px"
	 viewBox="0 0 512.003 512.003" style="enable-background:new 0 0 512.003 512.003;" xml:space="preserve">
<g>
	<g>
		<path d="M173.419,302.797H58.908c-17.166,0-32.267,12.91-35.058,29.713L0.176,447.022c-0.925,4.465,1.949,8.831,6.414,9.756
			c4.459,0.936,8.831-1.943,9.755-6.414l23.728-114.826c1.542-9.249,9.64-16.224,18.834-16.224h114.512
			c56.16,0,101.849,45.689,101.849,101.849v27.527c0,10.807-8.462,19.269-19.269,19.269H35.785c-4.558,0-8.258,3.7-8.258,8.258
			s3.7,8.258,8.258,8.258H256c20.067,0,35.785-15.718,35.785-35.785v-27.527C291.785,355.897,238.686,302.797,173.419,302.797z"/>
	</g>
</g>
<g>
	<g>
		<path d="M283.527,412.905c-100.368,0-101.833-97.704-101.849-101.86c-0.005-4.558-3.7-8.247-8.258-8.247
			c-4.564,0-8.258,3.7-8.258,8.258c0,1.184,1.354,118.366,118.366,118.366c4.558,0,8.258-3.7,8.258-8.258
			S288.085,412.905,283.527,412.905z"/>
	</g>
</g>
<g>
	<g>
		<path d="M64.936,330.484c-4.492-0.919-8.82,2.009-9.717,6.48l-11.011,55.054c-0.892,4.476,2.004,8.825,6.48,9.717
			c0.545,0.11,1.09,0.16,1.624,0.16c3.854,0,7.3-2.714,8.093-6.639l11.011-55.054C72.308,335.725,69.412,331.376,64.936,330.484z"/>
	</g>
</g>
<g>
	<g>
		<path d="M92.463,330.484c-4.47-0.919-8.825,2.009-9.717,6.48l-11.011,55.054c-0.892,4.476,2.004,8.825,6.48,9.717
			c0.545,0.11,1.09,0.16,1.624,0.16c3.854,0,7.3-2.714,8.093-6.639l11.011-55.054C99.834,335.725,96.939,331.376,92.463,330.484z"/>
	</g>
</g>
<g>
	<g>
		<path d="M35.785,412.905C16.054,412.905,0,428.959,0,448.69s16.054,35.785,35.785,35.785c19.731,0,35.785-16.054,35.785-35.785
			S55.516,412.905,35.785,412.905z M35.785,467.959c-10.625,0-19.269-8.643-19.269-19.269s8.643-19.269,19.269-19.269
			c10.625,0,19.269,8.643,19.269,19.269S46.41,467.959,35.785,467.959z"/>
	</g>
</g>
<g>
	<g>
		<path d="M509.583,470.376l-27.527-27.527c-1.552-1.547-3.656-2.417-5.841-2.417H366.108c-2.186,0-4.289,0.87-5.841,2.417
			l-27.527,27.527c-2.362,2.362-3.072,5.913-1.789,9.001s4.294,5.098,7.63,5.098h165.161c3.342,0,6.348-2.009,7.63-5.098
			C512.655,476.288,511.945,472.737,509.583,470.376z M358.516,467.959l11.011-11.011h103.27l11.011,11.011H358.516z"/>
	</g>
</g>
<g>
	<g>
		<path d="M421.161,110.109c-12.349,0-22.022,9.673-22.022,22.021v289.032c0,4.558,3.7,8.258,8.258,8.258h27.527
			c4.558,0,8.258-3.7,8.258-8.258V132.131C443.183,119.782,433.51,110.109,421.161,110.109z M426.667,412.905h-11.011V132.131
			c0-3.138,2.367-5.505,5.505-5.505s5.505,2.367,5.505,5.505V412.905z"/>
	</g>
</g>
<g>
	<g>
		<path d="M421.161,412.905c-20.067,0-35.785,15.718-35.785,35.785c0,4.558,3.7,8.258,8.258,8.258h55.054
			c4.558,0,8.258-3.7,8.258-8.258C456.946,428.623,441.228,412.905,421.161,412.905z M403.687,440.432
			c3.039-6.562,9.64-11.011,17.474-11.011s14.435,4.448,17.474,11.011H403.687z"/>
	</g>
</g>
<g>
	<g>
		<path d="M338.581,27.529c-50.082,0-90.839,40.751-90.839,90.839v68.817c0,33.39-27.169,60.559-60.559,60.559
			s-60.559-27.169-60.559-60.559v-13.763c0-20.067-15.718-35.785-35.785-35.785c-20.067,0-35.785,15.718-35.785,35.785v137.634
			c0,4.558,3.694,8.258,8.258,8.258s8.258-3.7,8.258-8.258V173.421c0-10.802,8.467-19.269,19.269-19.269
			c10.802,0,19.269,8.467,19.269,19.269v13.763c0,42.502,34.574,77.075,77.075,77.075s77.075-34.574,77.075-77.075v-68.817
			c0-40.982,33.335-74.323,74.323-74.323c40.988,0,74.323,33.341,74.323,74.323c0,4.564,3.7,8.258,8.258,8.258
			s8.258-3.694,8.258-8.258C429.419,68.279,388.663,27.529,338.581,27.529z"/>
	</g>
</g>
<g>
	<g>
		<path d="M96.674,442.849c-3.028-3.083-8.588-3.083-11.671,0c-1.542,1.547-2.422,3.689-2.422,5.841
			c0,2.147,0.881,4.294,2.422,5.836s3.634,2.422,5.836,2.422s4.294-0.881,5.836-2.422c1.542-1.542,2.422-3.689,2.422-5.836
			C99.097,446.537,98.216,444.396,96.674,442.849z"/>
	</g>
</g>
<g>
	<g>
		<path d="M283.527,440.432c-127.582,0-129.36-124.102-129.376-129.387c-0.011-4.553-3.705-8.242-8.258-8.242
			c-0.005,0-0.011,0-0.011,0c-4.558,0.005-8.247,3.694-8.247,8.253c0,1.459,1.668,145.892,145.892,145.892
			c4.558,0,8.258-3.7,8.258-8.258S288.085,440.432,283.527,440.432z"/>
	</g>
</g>
<g>
</g>
<g>
</g>
<g>
</g>
<g>
</g>
<g>
</g>
<g>
</g>
<g>
</g>
<g>
</g>
<g>
</g>
<g>
</g>
<g>
</g>
<g>
</g>
<g>
</g>
<g>
</g>
<g>
</g>
</svg>
